<?xml version="1.0" encoding="utf-8" ?>
<svg xmlns="http://www.w3.org/2000/svg" xmlns:xlink="http://www.w3.org/1999/xlink" width="30" height="30" viewBox="0 0 30 30">
	<path d="M-1.25 3.75Q-1.25 1.67893 0.214466 0.214466Q1.67893 -1.25 3.75 -1.25L7.5 -1.25Q9.57107 -1.25 11.0355 0.214466Q12.5 1.67893 12.5 3.75L12.5 7.5Q12.5 9.57107 11.0355 11.0355Q9.57106 12.5 7.5 12.5L3.75 12.5Q1.67893 12.5 0.214466 11.0355Q-1.25 9.57107 -1.25 7.5L-1.25 3.75ZM15 3.75Q15 1.67893 16.4645 0.214466Q17.9289 -1.25 20 -1.25L23.75 -1.25Q25.8211 -1.25 27.2855 0.214468Q28.75 1.67893 28.75 3.75L28.75 7.5Q28.75 9.57107 27.2855 11.0355Q25.8211 12.5 23.75 12.5L20 12.5Q17.9289 12.5 16.4645 11.0355Q15 9.57107 15 7.5L15 3.75ZM1.25 3.75L1.25 7.5Q1.25 8.53553 1.98223 9.26777Q2.71447 10 3.75 10L7.5 10Q8.53553 10 9.26777 9.26777Q10 8.53553 10 7.5L10 3.75Q10 2.71447 9.26777 1.98223Q8.53553 1.25 7.5 1.25L3.75 1.25Q2.71447 1.25 1.98223 1.98223Q1.25 2.71447 1.25 3.75ZM17.5 3.75L17.5 7.5Q17.5 8.53554 18.2322 9.26777Q18.9645 10 20 10L23.75 10Q24.7855 10 25.5178 9.26777Q26.25 8.53553 26.25 7.5L26.25 3.75Q26.25 2.71447 25.5178 1.98223Q24.7855 1.25 23.75 1.25L20 1.25Q18.9645 1.25 18.2322 1.98223Q17.5 2.71447 17.5 3.75ZM-1.25 20Q-1.25 17.9289 0.214466 16.4645Q1.67893 15 3.75 15L7.5 15Q9.57107 15 11.0355 16.4645Q12.5 17.9289 12.5 20L12.5 23.75Q12.5 25.8211 11.0355 27.2855Q9.57107 28.75 7.5 28.75L3.75 28.75Q1.67893 28.75 0.214465 27.2855Q-1.25 25.8211 -1.25 23.75L-1.25 20ZM15 20Q15 17.9289 16.4645 16.4645Q17.9289 15 20 15L23.75 15Q25.8211 15 27.2855 16.4645Q28.75 17.9289 28.75 20L28.75 23.75Q28.75 25.8211 27.2855 27.2855Q25.8211 28.75 23.75 28.75L20 28.75Q17.9289 28.75 16.4645 27.2855Q15 25.8211 15 23.75L15 20ZM1.25 20L1.25 23.75Q1.25 24.7855 1.98223 25.5178Q2.71447 26.25 3.75 26.25L7.5 26.25Q8.53553 26.25 9.26777 25.5178Q10 24.7855 10 23.75L10 20Q10 18.9645 9.26777 18.2322Q8.53554 17.5 7.5 17.5L3.75 17.5Q2.71446 17.5 1.98223 18.2322Q1.25 18.9645 1.25 20ZM17.5 20L17.5 23.75Q17.5 24.7855 18.2322 25.5178Q18.9645 26.25 20 26.25L23.75 26.25Q24.7855 26.25 25.5178 25.5178Q26.25 24.7855 26.25 23.75L26.25 20Q26.25 18.9645 25.5178 18.2322Q24.7855 17.5 23.75 17.5L20 17.5Q18.9645 17.5 18.2322 18.2322Q17.5 18.9645 17.5 20Z" fill-rule="evenodd" transform="matrix(1 0 0 1 1.25 1.25)" fill="rgb(255, 255, 255)"/>
</svg>
