<?xml version="1.0" encoding="utf-8" ?>
<svg xmlns="http://www.w3.org/2000/svg" xmlns:xlink="http://www.w3.org/1999/xlink" width="29.3916" height="28.4055" viewBox="0 0 29.3916 28.4055">
	<path d="M14.6236 0C12.2715 1.95975 10.7462 4.2485 9.75386 6.83712C10.2879 7.61837 10.7918 8.42712 11.2681 9.24925C12.2457 8.90219 13.2974 8.71256 14.3928 8.71256C15.5107 8.71256 16.5832 8.90981 17.5778 9.27069C18.1447 8.36319 18.7435 7.46719 19.3834 6.60444C18.3999 4.19794 16.9205 1.97787 14.6236 0ZM25.8505 2.01794C22.9292 3.79919 20.6421 6.67356 18.687 9.75706C20.0579 10.4678 21.2305 11.5085 22.1017 12.7723C23.5525 11.3652 25.1146 9.98212 26.8255 8.59606C26.7704 6.59888 26.4631 4.4065 25.8505 2.01794ZM3.78611 2.08631C3.19642 4.45881 2.88405 6.62975 2.80236 8.60319C4.27861 9.85806 5.64317 11.1286 6.91361 12.4534C7.77424 11.3103 8.88949 10.3693 10.1757 9.7175C8.40474 6.70219 6.27123 3.91937 3.78611 2.08631ZM0.374235 8.13006C-0.704827 14.8829 0.64436 19.872 3.2053 23.2065C4.60699 25.0315 6.37842 26.3702 8.3383 27.2292C7.03255 24.9833 6.71498 22.4306 7.29998 19.9722C7.59173 18.7461 8.10299 17.5432 8.81711 16.4041C6.43336 13.3972 3.68692 10.7784 0.374235 8.13006ZM29.286 8.15906C25.5441 11.0289 22.5105 13.8267 19.826 16.8225C20.4275 17.9315 20.841 19.0825 21.0586 20.2432C21.5011 22.6045 21.1219 25.0016 19.9142 27.1136C21.9267 26.2227 23.7895 24.8644 25.3211 23.0378C28.1324 19.6852 29.8457 14.7456 29.286 8.15906ZM14.3928 9.88044C11.6372 9.88044 9.20374 11.2346 7.72005 13.3151C8.33867 13.9936 8.9343 14.6884 9.51005 15.4038C10.6694 13.8779 12.2115 12.4988 14.0958 11.3774L14.4128 11.1887L14.7194 11.3941C16.6184 12.6656 18.1178 14.1643 19.1975 15.7806C19.8624 15.0448 20.5482 14.3196 21.2608 13.6025C19.8012 11.3603 17.2731 9.8805 14.3928 9.88044ZM14.376 12.5793C11.1523 14.5963 9.11417 17.3938 8.43636 20.2426C7.75261 23.1157 8.41749 26.0337 10.6855 28.4055L17.492 28.4055C19.6674 26.1317 20.4434 23.3022 19.9105 20.4586C19.3814 17.6351 17.5362 14.794 14.376 12.5793Z" fill-rule="nonzero" transform="matrix(1 0 0 1 5.37634e-05 -0.000115156)" fill="rgb(74, 157, 107)"/>
</svg>
