<?xml version="1.0" encoding="utf-8" ?>
<svg xmlns="http://www.w3.org/2000/svg" xmlns:xlink="http://www.w3.org/1999/xlink" width="26.6667" height="33.3334" viewBox="0 0 26.6667 33.3334">
	<path d="M10.8333 18.3333L6.66667 18.3333L6.66667 13.3333L10.8333 13.3333L10.8333 9.16667L15.8333 9.16667L15.8333 13.3333L20 13.3333L20 18.3333L15.8333 18.3333L15.8333 22.5L10.8333 22.5L10.8333 18.3333ZM13.3333 0L0 5L0 15.15C0 23.5667 5.68333 31.4167 13.3333 33.3333C20.9833 31.4167 26.6667 23.5667 26.6667 15.15L26.6667 5L13.3333 0ZM23.3333 15.15C23.3333 21.8167 19.0833 27.9833 13.3333 29.8667C7.58333 27.9833 3.33333 21.8333 3.33333 15.15L3.33333 7.31667L13.3333 3.56667L23.3333 7.31667L23.3333 15.15Z" fill-rule="nonzero" transform="matrix(1 0 0 1 -8.15392e-05 -4.07696e-05)" fill="rgb(255, 255, 255)"/>
</svg>
