<?xml version="1.0" encoding="utf-8" ?>
<svg xmlns="http://www.w3.org/2000/svg" xmlns:xlink="http://www.w3.org/1999/xlink" width="36.7396" height="35.5068" viewBox="0 0 36.7396 35.5068">
	<path d="M18.2795 0C15.3394 2.44969 13.4328 5.31062 12.1923 8.54641C12.8598 9.52297 13.4897 10.5339 14.0851 11.5616C15.3072 11.1277 16.6217 10.8907 17.991 10.8907C19.3883 10.8907 20.729 11.1373 21.9722 11.5884C22.6808 10.454 23.4294 9.33398 24.2293 8.25554C22.9999 5.24742 21.1507 2.47234 18.2795 0ZM32.3131 2.52242C28.6615 4.74898 25.8026 8.34195 23.3587 12.1963C25.0723 13.0848 26.5381 14.3856 27.6272 15.9654C29.4406 14.2065 31.3933 12.4777 33.5319 10.7451C33.463 8.24859 33.0789 5.50813 32.3131 2.52242ZM4.73264 2.60789C3.99553 5.57352 3.60506 8.28719 3.50295 10.754C5.34826 12.3226 7.05396 13.9107 8.64201 15.5667C9.71779 14.1378 11.1119 12.9616 12.7197 12.1469C10.5059 8.37773 7.83904 4.89922 4.73264 2.60789ZM0.467793 10.1626C-0.881034 18.6037 0.80545 24.84 4.00662 29.0081C5.75873 31.2894 7.97303 32.9628 10.4229 34.0365C8.79069 31.2291 8.39373 28.0383 9.12498 24.9652C9.48967 23.4327 10.1287 21.929 11.0214 20.5051C8.0417 16.7465 4.60865 13.473 0.467793 10.1626ZM36.6075 10.1988C31.9301 13.7862 28.1381 17.2834 24.7825 21.0281C25.5344 22.4144 26.0512 23.8531 26.3233 25.3041C26.8764 28.2556 26.4023 31.252 24.8928 33.892C27.4084 32.7784 29.7369 31.0805 31.6514 28.7972C35.1655 24.6066 37.3072 18.432 36.6075 10.1988ZM17.991 12.3505C14.5465 12.3505 11.5047 14.0433 9.65006 16.6438C10.4233 17.492 11.1679 18.3605 11.8876 19.2548C13.3368 17.3473 15.2644 15.6235 17.6197 14.2218L18.016 13.9859L18.3993 14.2426C20.7729 15.832 22.6472 17.7053 23.9969 19.7258C24.828 18.8059 25.6852 17.8995 26.576 17.0031C24.7515 14.2004 21.5914 12.3506 17.991 12.3505ZM17.9701 15.7241C13.9404 18.2454 11.3927 21.7423 10.5455 25.3032C9.69076 28.8946 10.5219 32.5421 13.3569 35.5069L21.865 35.5069C24.5842 32.6647 25.5542 29.1278 24.8881 25.5733C24.2267 22.0438 21.9203 18.4925 17.9701 15.7241Z" fill-rule="nonzero" transform="matrix(1 0 0 1 6.19888e-06 3.91006e-05)" fill="rgb(255, 255, 255)"/>
</svg>
